<svg xmlns="http://www.w3.org/2000/svg" xmlns:xlink="http://www.w3.org/1999/xlink" version="1.1" viewBox="110 304 800 160" xml:space="preserve">
<desc>Created with Fabric.js 6.7.1</desc>
<defs>
</defs>
<g transform="matrix(1 0 0 1 511.5061 384.0142)">
<path style="stroke: none; stroke-width: 1; stroke-dasharray: none; stroke-linecap: butt; stroke-dashoffset: 0; stroke-linejoin: miter; stroke-miterlimit: 4; fill: rgb(255,255,255); fill-rule: nonzero; opacity: 1;" transform=" translate(-511.5062, -384.0142)" d="M 320.6706 436.5924 C 321.6765 435.4859 322.1794 433.9771 322.1794 432.0659 L 322.1794 353.8458 L 356.7317 418.0337 C 357.3352 419.2408 358.0393 420.1461 358.844 420.7496 C 359.6488 421.3532 360.7552 421.6549 362.1635 421.6549 C 363.5717 421.6549 364.6279 421.4035 365.332 420.9005 C 366.1367 420.297 366.8911 419.3414 367.5953 418.0337 L 401.6949 354.0629 L 401.6949 432.0659 C 401.6949 433.9771 402.1978 435.4859 403.2037 436.5924 C 404.2096 437.5983 405.6178 438.1012 407.4284 438.1012 C 409.3396 438.1012 410.7479 437.5983 411.6532 436.5924 C 412.6591 435.4859 413.162 433.9771 413.162 432.0659 L 413.162 335.6515 C 413.162 333.6397 412.6591 332.1309 411.6532 331.125 C 410.6473 330.1191 409.2893 329.6162 407.5793 329.6162 C 405.8693 329.6162 404.5617 329.9682 403.6564 330.6724 C 402.7511 331.2759 401.8961 332.3321 401.0913 333.8409 L 362.1593 407.4267 L 323.0847 333.8409 C 322.28 332.3321 321.3747 331.2759 320.3688 330.6724 C 319.4635 329.9682 318.2062 329.6162 316.5968 329.6162 C 314.7862 329.6162 313.3779 330.1191 312.372 331.125 C 311.3661 332.1309 310.8632 333.6397 310.8632 335.6515 L 310.8632 432.0659 C 310.8632 433.9771 311.3661 435.4859 312.372 436.5924 C 313.3779 437.5983 314.7862 438.1012 316.5968 438.1012 C 318.4074 438.1012 319.7653 437.5983 320.6706 436.5924 Z M 482.7193 435.8381 C 487.0446 434.0275 490.7664 431.4625 493.8847 428.1431 C 497.0029 424.7231 499.3668 420.6995 500.9762 416.0725 C 502.5856 411.4454 503.3903 406.2147 503.3903 400.3806 C 503.3903 392.6353 501.9318 385.9461 499.0147 380.3131 C 496.1982 374.5796 492.1747 370.1537 486.944 367.0354 C 481.7134 363.9172 475.5272 362.358 468.3854 362.358 C 463.0542 362.358 458.2259 363.2633 453.9006 365.0739 C 449.6759 366.7839 446.0044 369.2987 442.8861 372.6181 C 439.7679 375.9375 437.4041 379.9611 435.7946 384.6887 C 434.1852 389.3158 433.3805 394.5464 433.3805 400.3806 C 433.3805 408.1259 434.7887 414.8654 437.6052 420.5989 C 440.5223 426.2319 444.5962 430.6075 449.8268 433.7258 C 455.0574 436.844 461.2436 438.4032 468.3854 438.4032 C 473.7166 438.4032 478.4946 437.5482 482.7193 435.8382 Z M 451.9391 421.3534 C 447.815 416.4245 445.7529 409.4336 445.7529 400.3806 C 445.7529 394.2447 446.6582 389.1147 448.4688 384.9905 C 450.38 380.7658 452.9953 377.5972 456.3147 375.4849 C 459.7348 373.2719 463.7583 372.1654 468.3854 372.1654 C 475.326 372.1654 480.8081 374.5796 484.8317 379.4078 C 488.9558 384.2361 491.0179 391.227 491.0179 400.3806 C 491.0179 406.3153 490.0623 411.3951 488.1511 415.6198 C 486.3405 419.8445 483.7252 423.0634 480.3052 425.2763 C 476.8852 427.4893 472.9119 428.5957 468.3854 428.5957 C 461.5454 428.5957 456.0633 426.1816 451.9391 421.3533 Z M 552.8355 436.7434 C 554.2437 435.7376 555.2999 434.2287 556.004 432.2169 L 582.4086 371.1092 C 583.0121 369.6004 583.2133 368.2425 583.0121 367.0354 C 582.9115 365.7277 582.4086 364.6716 581.5033 363.8668 C 580.6986 363.0621 579.4915 362.6598 577.8821 362.6598 C 576.1721 362.6598 574.8644 363.0118 573.9591 363.716 C 573.0538 364.4201 572.2491 365.6774 571.545 367.488 L 548.4029 423.0568 L 525.6765 367.488 C 524.9724 365.6774 524.1677 364.4201 523.2624 363.716 C 522.3571 363.0118 521.0997 362.6598 519.4903 362.6598 C 517.6797 362.6598 516.2715 363.0621 515.2656 363.8668 C 514.2597 364.6716 513.6561 365.7277 513.455 367.0354 C 513.2538 368.3431 513.5053 369.7513 514.2094 371.2601 L 540.3122 432.2169 C 541.2175 434.2287 542.324 435.7375 543.6316 436.7434 C 544.9393 437.6487 546.4481 438.1014 548.1581 438.1014 C 549.9687 438.1014 551.5278 437.6487 552.8355 436.7434 Z M 643.8626 436.4417 C 648.3891 435.134 652.3121 433.2731 655.6315 430.859 C 656.9392 430.0543 657.7942 429.0987 658.1965 427.9922 C 658.6995 426.8857 658.8 425.8799 658.4983 424.9746 C 658.2971 423.9687 657.8445 423.164 657.1403 422.5604 C 656.4362 421.8563 655.4806 421.5043 654.2736 421.5043 C 653.1671 421.4037 651.9097 421.806 650.5015 422.7113 C 647.2826 424.8237 643.9632 426.3325 640.5432 427.2378 C 637.2238 428.1431 633.854 428.5958 630.434 428.5958 C 622.1857 428.5958 615.7983 426.1816 611.2718 421.3534 C 607.2895 417.0091 605.0988 410.8731 604.6997 402.9456 L 654.7262 402.9456 C 656.4362 402.9456 657.7439 402.5936 658.6492 401.8895 C 659.5545 401.0847 660.0071 399.8777 660.0071 398.2683 C 660.0071 392.7359 659.2527 387.7567 657.7439 383.3308 C 656.3356 378.9049 654.2233 375.1328 651.4068 372.0146 C 648.6909 368.8963 645.3714 366.5325 641.4485 364.9231 C 637.5255 363.2131 633.0996 362.3581 628.1708 362.3581 C 621.2301 362.3581 615.0942 363.9675 609.763 367.1863 C 604.5324 370.4052 600.4083 374.8814 597.3906 380.6149 C 594.3729 386.2479 592.8641 392.8867 592.8641 400.5315 C 592.8641 408.3774 594.3729 415.1169 597.3906 420.7498 C 600.5088 426.3828 604.8342 430.7584 610.3666 433.8767 C 615.9995 436.8943 622.6887 438.4032 630.434 438.4032 C 634.8599 438.4032 639.3361 437.7494 643.8626 436.4417 Z M 649.4089 394.9488 L 604.8356 394.9488 C 605.195 391.2071 606.0328 387.8373 607.3489 384.8396 C 609.1595 380.6149 611.8251 377.3458 615.3457 375.0322 C 618.9669 372.6181 623.3425 371.411 628.4725 371.411 C 633.0996 371.411 636.922 372.4169 639.9396 374.4287 C 643.0579 376.4405 645.4217 379.3575 647.0312 383.1799 C 648.443 386.4449 649.2356 390.3678 649.4089 394.9488 Z M 691.6926 431.3115 L 691.6926 388.6115 L 737.712 388.6115 C 739.422 388.6115 740.7296 388.1589 741.6349 387.2536 C 742.6408 386.3483 743.1438 385.0406 743.1438 383.3306 C 743.1438 381.7212 742.6408 380.4638 741.6349 379.5585 C 740.7296 378.6532 739.422 378.2006 737.712 378.2006 L 691.6926 378.2006 L 691.6926 341.0833 L 740.8805 341.0833 C 742.5905 341.0833 743.8982 340.6307 744.8035 339.7254 C 745.7088 338.8201 746.1614 337.5124 746.1614 335.8024 C 746.1614 334.193 745.7088 332.9356 744.8035 332.0303 C 743.8982 331.125 742.5905 330.6724 740.8805 330.6724 L 686.1099 330.6724 C 683.897 330.6724 682.1869 331.2759 680.9799 332.483 C 679.8734 333.5895 679.3202 335.2492 679.3202 337.4621 L 679.3202 431.3115 C 679.3202 433.5244 679.8734 435.2344 680.9799 436.4415 C 682.1869 437.548 683.8467 438.1012 685.959 438.1012 C 689.7814 438.1012 691.6926 435.838 691.6926 431.3115 Z M 802.29 435.8381 C 806.6153 434.0275 810.3371 431.4625 813.4554 428.1431 C 816.5736 424.7231 818.9374 420.6995 820.5469 416.0725 C 822.1563 411.4454 822.961 406.2147 822.961 400.3806 C 822.961 392.6353 821.5025 385.9461 818.5854 380.3131 C 815.7689 374.5796 811.7453 370.1537 806.5147 367.0354 C 801.2841 363.9172 795.0979 362.358 787.9561 362.358 C 782.6249 362.358 777.7966 363.2633 773.4713 365.0739 C 769.2466 366.7839 765.5751 369.2987 762.4568 372.6181 C 759.3386 375.9375 756.9747 379.9611 755.3653 384.6887 C 753.7559 389.3158 752.9512 394.5464 752.9512 400.3806 C 752.9512 408.1259 754.3594 414.8654 757.1759 420.5989 C 760.093 426.2319 764.1668 430.6075 769.3975 433.7258 C 774.6281 436.844 780.8143 438.4032 787.9561 438.4032 C 793.2873 438.4032 798.0653 437.5482 802.29 435.8382 Z M 771.5098 421.3534 C 767.3857 416.4245 765.3236 409.4336 765.3236 400.3806 C 765.3236 394.2447 766.2289 389.1147 768.0395 384.9905 C 769.9507 380.7658 772.566 377.5972 775.8854 375.4849 C 779.3055 373.2719 783.329 372.1654 787.9561 372.1654 C 794.8967 372.1654 800.3788 374.5796 804.4024 379.4078 C 808.5265 384.2361 810.5886 391.227 810.5886 400.3806 C 810.5886 406.3153 809.633 411.3951 807.7218 415.6198 C 805.9112 419.8445 803.2959 423.0634 799.8759 425.2763 C 796.4559 427.4893 792.4826 428.5957 787.9561 428.5957 C 781.1161 428.5957 775.634 426.1816 771.5098 421.3533 Z M 843.8557 437.0453 C 844.9621 436.4417 845.968 435.5867 846.8733 434.4803 L 867.9215 407.965 L 888.9697 434.4803 C 889.9756 435.6873 890.9815 436.5423 891.9874 437.0453 C 893.0939 437.6488 894.3512 437.9506 895.7595 437.9506 C 897.1677 437.9506 898.3748 437.5482 899.3807 436.7435 C 900.3866 435.9388 900.8895 434.8826 900.8895 433.5749 C 900.9901 432.1667 900.4369 430.7082 899.2298 429.1993 L 875.077 399.2498 L 897.4192 371.5619 C 898.7268 369.9525 899.3304 368.494 899.2298 367.1863 C 899.2298 365.7781 898.7269 364.6716 897.721 363.8669 C 896.8157 363.0622 895.6589 362.6598 894.2506 362.6598 C 892.7418 362.6598 891.4845 362.9616 890.4786 363.5651 C 889.4727 364.0681 888.5171 364.9231 887.6118 366.1301 L 868.0043 390.7756 L 848.533 366.1301 C 847.6277 364.9231 846.6219 364.0681 845.5154 363.5651 C 844.5095 362.9616 843.2521 362.6598 841.7433 362.6598 C 840.4357 362.6598 839.2789 363.0622 838.273 363.8669 C 837.2671 364.6716 836.7139 365.7278 836.6133 367.0354 C 836.6133 368.3431 837.2671 369.8016 838.5748 371.4111 L 860.792 399.1826 L 836.915 429.1993 C 835.6074 430.7082 834.9536 432.1667 834.9536 433.5749 C 835.0542 434.8826 835.6074 435.9388 836.6133 436.7435 C 837.6192 437.5482 838.7759 437.9506 840.0836 437.9506 C 841.5924 437.9506 842.8498 437.6488 843.8557 437.0453 Z M 194.7466 315.8748 C 154.6303 315.8748 122.111 348.454 122.1112 388.6438 C 122.1112 410.6417 131.869 430.3432 147.2675 443.6887 C 141.7049 431.7986 144.4982 414.3059 144.4982 414.3059 C 144.4982 414.3059 142.6766 414.3059 136.6869 420.3065 C 136.6613 420.3749 136.3944 389.5566 158.817 371.8025 C 159.8583 349.6197 179.4008 332.9099 179.4008 332.9099 L 188.6791 351.4954 C 193.229 347.4777 196.6008 343.9886 203.6308 340.4851 C 208.0628 347.2658 207.5891 366.859 207.5891 366.859 C 214.0694 371.3233 218.8308 377.8709 221.0875 385.4192 C 222.5386 390.5258 225.5764 395.0368 229.7586 398.2972 C 237.94 404.7725 246.6352 410.9091 246.6352 410.9091 C 246.6352 410.9091 242.4657 424.4852 228.9128 424.4852 C 215.3615 424.4852 198.4169 420.835 198.4169 420.835 C 198.4169 420.835 198.9458 439.6921 230.1925 452.1536 C 252.3794 439.7002 267.3836 415.9319 267.3836 388.6438 C 267.3838 348.454 234.8631 315.8748 194.7466 315.8748 Z" stroke-linecap="round"/>
</g>
</svg>